<svg xmlns="http://www.w3.org/2000/svg" width="140" height="243" viewBox="0 0 140 243">
  <metadata><?xpacket begin="﻿" id="W5M0MpCehiHzreSzNTczkc9d"?>
<x:xmpmeta xmlns:x="adobe:ns:meta/" x:xmptk="Adobe XMP Core 5.6-c142 79.160924, 2017/07/13-01:06:39        ">
   <rdf:RDF xmlns:rdf="http://www.w3.org/1999/02/22-rdf-syntax-ns#">
      <rdf:Description rdf:about=""/>
   </rdf:RDF>
</x:xmpmeta>
                                                                                                    
                                                                                                    
                                                                                                    
                                                                                                    
                                                                                                    
                                                                                                    
                                                                                                    
                                                                                                    
                                                                                                    
                                                                                                    
                                                                                                    
                                                                                                    
                                                                                                    
                                                                                                    
                                                                                                    
                                                                                                    
                                                                                                    
                                                                                                    
                                                                                                    
                                                                                                    
                           
<?xpacket end="w"?></metadata>
<defs>
    <style>
      .cls-1 {
        fill: #9eb6d2;
        fill-rule: evenodd;
      }
    </style>
  </defs>
  <path id="Path" class="cls-1" d="M132.456,414.127a74.43,74.43,0,0,0-20.922-3.111A64.734,64.734,0,0,0,85.3,416.489c6.594-24.582,22.435-67,53.992-71.776a7.544,7.544,0,0,0,6.115-5.491l6.9-25.12a7.749,7.749,0,0,0-.953-6.242,7.49,7.49,0,0,0-5.246-3.373A51.545,51.545,0,0,0,139.05,304c-37.878,0-75.391,40.259-91.22,97.9C38.538,435.721,35.814,486.565,58.7,518.568c12.808,17.907,31.494,27.47,55.539,28.425,0.1,0,.2.006,0.293,0.006,29.669,0,55.977-20.346,63.98-49.473a68.333,68.333,0,0,0-6.09-51.433A66.855,66.855,0,0,0,132.456,414.127Z" transform="translate(-41 -304)"/>
</svg>
